<?xml version="1.0" standalone="no"?>
<!DOCTYPE svg PUBLIC "-//W3C//DTD SVG 20010904//EN"
 "http://www.w3.org/TR/2001/REC-SVG-20010904/DTD/svg10.dtd">
<svg version="1.0" xmlns="http://www.w3.org/2000/svg"
 width="700.000000pt" height="700.000000pt" viewBox="0 0 700.000000 700.000000"
 preserveAspectRatio="xMidYMid meet">
<metadata>
Created by potrace 1.14, written by Peter Selinger 2001-2017
</metadata>
<g transform="translate(0.000000,700.000000) scale(0.100000,-0.100000)"
fill="#000000" stroke="none">
<path d="M3389 6674 c-60 -14 -177 -68 -246 -112 -34 -22 -494 -300 -610 -368
-17 -11 -69 -41 -115 -69 -45 -27 -91 -54 -101 -60 -9 -5 -77 -46 -150 -89
-72 -43 -310 -185 -527 -314 -610 -363 -741 -442 -786 -476 -70 -52 -96 -101
-109 -206 -6 -45 -7 -2737 -1 -2775 22 -149 132 -306 258 -367 93 -46 191 -60
268 -38 19 5 71 30 115 56 44 25 105 60 135 77 30 17 84 48 120 70 36 22 80
49 99 59 18 10 140 81 270 157 130 76 272 158 317 182 45 24 91 51 104 59 l23
16 2 604 c1 382 6 633 13 680 14 92 45 205 74 268 81 175 268 363 453 456 68
34 215 89 215 81 0 -2 15 1 32 6 69 19 297 30 346 15 9 -3 37 -8 61 -11 53 -8
202 -53 216 -66 5 -5 15 -9 21 -9 18 0 129 -66 195 -116 171 -131 309 -352
355 -569 13 -64 16 -275 4 -342 -36 -209 -129 -384 -285 -536 -33 -33 -93 -81
-134 -108 -88 -57 -219 -115 -233 -101 -5 5 -9 84 -9 176 l0 168 39 36 c128
121 208 294 209 455 4 304 -254 554 -556 541 -171 -7 -332 -107 -404 -250 -23
-45 -29 -64 -42 -134 -3 -14 -5 -664 -4 -1445 0 -781 0 -1457 0 -1502 l-1 -82
62 -42 c76 -51 153 -109 274 -206 51 -40 95 -73 100 -73 19 0 299 224 320 255
13 20 15 121 14 725 0 387 -3 706 -5 711 -3 4 11 11 32 14 191 33 408 122 582
240 106 71 129 89 216 174 123 120 203 223 280 362 67 122 142 318 160 422 3
15 7 39 10 55 2 15 9 50 14 77 5 28 8 133 6 235 -2 171 -5 201 -21 270 -3 14
-8 39 -11 55 -7 42 -50 178 -81 255 -26 65 -120 251 -131 260 -3 3 -26 34 -50
70 -230 334 -620 585 -1018 655 -175 30 -413 32 -578 4 -517 -88 -995 -428
-1213 -864 -66 -132 -120 -300 -138 -430 -3 -27 -8 -59 -10 -70 -17 -92 -22
-244 -23 -700 l-1 -400 -53 -29 c-28 -16 -135 -78 -236 -138 -102 -61 -194
-114 -206 -118 l-22 -9 0 1184 1 1184 21 5 c11 3 250 143 530 311 281 168 517
309 525 314 8 5 185 112 394 237 208 126 390 236 405 244 14 9 89 53 166 99
77 47 144 84 150 84 10 0 521 -297 675 -393 54 -33 227 -136 235 -139 5 -2 40
-24 78 -48 37 -23 69 -43 71 -43 2 0 80 -46 173 -101 92 -56 184 -111 204
-123 28 -16 234 -140 329 -197 115 -69 265 -157 347 -202 l102 -58 1 -1179 c0
-648 -3 -1181 -8 -1184 -5 -3 -21 4 -38 15 -114 78 -539 319 -561 319 -5 0
-24 -28 -43 -62 -54 -100 -166 -262 -222 -323 -41 -46 -49 -59 -37 -66 8 -6
79 -48 159 -96 257 -152 495 -296 510 -308 22 -18 159 -88 205 -105 54 -20
194 -21 247 -3 125 42 229 127 278 228 65 130 62 72 63 1555 0 740 -3 1369 -7
1398 -8 70 -26 110 -67 153 -25 26 -559 356 -644 399 -6 3 -83 49 -172 102
-88 53 -176 106 -194 116 -19 11 -146 87 -284 169 -359 215 -900 538 -1041
621 -67 40 -152 84 -190 98 -82 31 -184 38 -265 18z"/>
</g>
</svg>
